# xmcd
#
# Track frame offsets:
#	150
#	14788
#	35952
#	52241
#	73379
#	85881
#	101273
#	121812
#	143106
#	159980
#	181716
#
# Disc length: 2647 seconds
#
# Revision: 0
# Processed by: cddbd v1.5.2PL0 Copyright (c) Steve Scherf et al.
# Submitted via: audiograbber 1.83.01
#
DISCID=9a0a550b
DTITLE=Michael Wilde - OTX1001
DYEAR=2006
DGENRE=Country
TTITLE0=The Time I Spent With You
TTITLE1=Merry Go Round
TTITLE2=Hold Tight
TTITLE3=Workin Class Hero
TTITLE4=I Can't Reach My Heart
TTITLE5=Too Little Too Late Too Bad
TTITLE6=Not Without A Fight
TTITLE7=Just Me And Him
TTITLE8=Merry Christmas I Love You
TTITLE9=Christmas Puts The Blues In Me
TTITLE10=Merry Christmas I Love You (Unplugged)
EXTD=Original Karaoke Tracks - Omnitraxx Records
EXTT0=
EXTT1=
EXTT2=
EXTT3=
EXTT4=
EXTT5=
EXTT6=
EXTT7=
EXTT8=
EXTT9=
EXTT10=
PLAYORDER=
